<?xml version="1.0" encoding="UTF-8" standalone="no"?>
<svg
   xmlns:dc="http://purl.org/dc/elements/1.1/"
   xmlns:cc="http://creativecommons.org/ns#"
   xmlns:rdf="http://www.w3.org/1999/02/22-rdf-syntax-ns#"
   xmlns:svg="http://www.w3.org/2000/svg"
   xmlns="http://www.w3.org/2000/svg"
   xmlns:sodipodi="http://sodipodi.sourceforge.net/DTD/sodipodi-0.dtd"
   xmlns:inkscape="http://www.inkscape.org/namespaces/inkscape"
   version="1.1"
   id="svg31"
   width="398"
   height="243"
   viewBox="0 0 398 243"
   sodipodi:docname="logo_lightbg.svg"
   inkscape:version="1.0.2-2 (e86c870879, 2021-01-15)">
  <metadata
     id="metadata37">
    <rdf:RDF>
      <cc:Work
         rdf:about="">
        <dc:format>image/svg+xml</dc:format>
        <dc:type
           rdf:resource="http://purl.org/dc/dcmitype/StillImage" />
        <dc:title></dc:title>
      </cc:Work>
    </rdf:RDF>
  </metadata>
  <defs
     id="defs35" />
  <sodipodi:namedview
     pagecolor="#ffffff"
     bordercolor="#666666"
     borderopacity="1"
     objecttolerance="10"
     gridtolerance="10"
     guidetolerance="10"
     inkscape:pageopacity="0"
     inkscape:pageshadow="2"
     inkscape:window-width="1920"
     inkscape:window-height="1009"
     id="namedview33"
     showgrid="false"
     inkscape:zoom="1.869036"
     inkscape:cx="195.74277"
     inkscape:cy="126.61352"
     inkscape:window-x="-8"
     inkscape:window-y="-8"
     inkscape:window-maximized="1"
     inkscape:current-layer="g39"
     inkscape:document-rotation="0" />
  <g
     inkscape:groupmode="layer"
     inkscape:label="Image"
     id="g39">
    <path
       style="display:inline;fill:#000000;fill-opacity:0.92771077"
       d="M 105.5,241.3315 C 91.732777,239.63891 72.88792,233.01752 59.904657,225.31098 28.95765,206.9416 9.734069,179.57336 2.3408489,143.35848 -0.16128676,131.10204 0.09803617,108.08669 2.8824591,95.289643 15.023235,39.491357 64.163744,0 121.45477,0 172.40268,0 218.25822,32.124937 235.37601,79.809597 236.8192,83.829876 238,87.317376 238,87.559597 238,87.801819 236.41386,88 234.47525,88 c -2.8813,0 -3.70632,-0.477568 -4.51937,-2.616045 C 222.64403,66.152326 214.62062,53.446124 201.58091,40.448165 196.58641,35.469656 189.63357,29.453767 186.13016,27.079523 176.65292,20.656845 160.45589,13.27121 149.33721,10.302414 140.57527,7.9628924 137.58713,7.6677175 122,7.6019895 102.81014,7.5210696 97.096996,8.4386642 81.843375,14.051588 45.496208,27.42637 18.577197,58.801967 9.3900031,98.5 c -2.4506836,10.58945 -2.4206014,33.50337 0.059078,45 7.5947949,35.21204 32.1781019,66.38492 63.8908169,81.01679 35.617252,16.43339 78.580872,13.35216 110.505292,-7.92512 19.26147,-12.83756 34.16288,-30.76047 42.82177,-51.50458 3.04235,-7.28855 3.30795,-7.5993 6.75,-7.89746 1.97067,-0.1707 3.58304,-0.0685 3.58304,0.22718 0,0.29564 -1.06849,3.37625 -2.37442,6.84578 -5.80153,15.41325 -13.68588,27.62387 -26.36851,40.83737 -23.32307,24.29931 -53.6862,37.13786 -86.91415,36.75021 C 114.27931,241.76776 107.15,241.53436 105.5,241.3315 Z"
       id="path43"
       sodipodi:nodetypes="sssssssssssssssssssssssss" />
    <g
       aria-label="MangaHome"
       id="text19"
       style="font-size:56px;line-height:1.5;font-family:'Russo One';-inkscape-font-specification:'Russo One';display:inline">
      <path
         d="m 88.083573,117.20323 -7.84,14 h -7.84 l -7.84,-14 v 21.84 h -10.08 V 99.843228 h 10.64 l 11.2,20.720002 11.2,-20.720002 h 10.64 v 39.200002 h -10.08 z"
         style="font-size:56px"
         id="path21" />
      <path
         d="m 116.08355,131.76323 q 2.968,0 6.72,-1.12 v -3.36 h -8.12 q -0.84,0 -1.4,0.56 -0.56,0.56 -0.56,1.4 v 0.56 q 0,0.84 0.56,1.4 0.56,0.56 1.4,0.56 z m -10.36,-21.84 q 10.248,-1.12 18.48,-1.12 3.808,0 6.104,2.296 2.296,2.296 2.296,6.104 v 21.84 h -8.68 l -0.56,-2.8 q -2.632,1.736 -5.432,2.576 -2.744,0.784 -4.648,0.784 h -1.96 q -3.808,0 -6.104,-2.296 -2.296,-2.296 -2.296,-6.104 v -2.52 q 0,-3.808 2.296,-6.104 2.296,-2.296 6.104,-2.296 h 11.48 v -2.24 q 0,-0.84 -0.56,-1.4 -0.56,-0.56 -1.4,-0.56 -3.64,0 -8.064,0.336 -4.368,0.336 -7.056,0.504 z"
         style="font-size:56px"
         id="path23" />
      <path
         d="m 154.16351,116.92323 q -2.968,0 -6.72,1.12 v 21 h -9.8 v -29.68 h 8.68 l 0.56,2.8 q 2.632,-1.736 5.376,-2.52 2.8,-0.84 4.704,-0.84 h 2.52 q 3.808,0 6.104,2.296 2.296,2.296 2.296,6.104 v 21.84 h -9.8 v -20.16 q 0,-0.84 -0.56,-1.4 -0.56,-0.56 -1.4,-0.56 z"
         style="font-size:56px"
         id="path25" />
      <path
         d="m 192.24347,136.80323 q -5.432,1.12 -9.52,1.12 h -1.96 q -3.808,0 -6.104,-2.296 -2.296,-2.296 -2.296,-6.104 v -11.2 q 0,-4.2 2.352,-6.552 2.408,-2.408 6.608,-2.408 h 20.72 v 31.36 q 0,3.808 -2.296,6.104 -2.296,2.296 -6.104,2.296 -8.792,0 -19.6,-1.12 v -7.28 q 10.696,0.84 16.24,0.84 0.84,0 1.4,-0.56 0.56,-0.56 0.56,-1.4 z m -6.72,-6.44 q 3.528,0 6.72,-0.56 v -12.88 h -7.84 q -2.24,0 -2.24,2.24 v 9.24 q 0,0.84 0.56,1.4 0.56,0.56 1.4,0.56 z"
         style="font-size:56px"
         id="path27" />
      <path
         d="m 219.40341,131.76323 q 2.968,0 6.72,-1.12 v -3.36 h -8.12 q -0.84,0 -1.4,0.56 -0.56,0.56 -0.56,1.4 v 0.56 q 0,0.84 0.56,1.4 0.56,0.56 1.4,0.56 z m -10.36,-21.84 q 10.248,-1.12 18.48,-1.12 3.808,0 6.104,2.296 2.296,2.296 2.296,6.104 v 21.84 h -8.68 l -0.56,-2.8 q -2.632,1.736 -5.432,2.576 -2.744,0.784 -4.648,0.784 h -1.96 q -3.808,0 -6.104,-2.296 -2.296,-2.296 -2.296,-6.104 v -2.52 q 0,-3.808 2.296,-6.104 2.296,-2.296 6.104,-2.296 h 11.48 v -2.24 q 0,-0.84 -0.56,-1.4 -0.56,-0.56 -1.4,-0.56 -3.64,0 -8.064,0.336 -4.368,0.336 -7.056,0.504 z"
         style="font-size:56px"
         id="path29" />
      <path
         d="m 275.68337,139.04323 h -10.08 v -15.96 h -14 v 15.96 h -10.08 V 99.843228 h 10.08 v 15.400002 h 14 V 99.843228 h 10.08 z"
         style="font-size:56px"
         id="path31" />
      <path
         d="m 312.08334,130.64323 q 0,4.2 -2.408,6.608 -2.352,2.352 -6.552,2.352 h -12.88 q -4.2,0 -6.608,-2.352 -2.352,-2.408 -2.352,-6.608 v -12.88 q 0,-4.2 2.352,-6.552 2.408,-2.408 6.608,-2.408 h 12.88 q 4.2,0 6.552,2.408 2.408,2.352 2.408,6.552 z m -9.8,-12.04 q 0,-2.24 -2.24,-2.24 h -6.72 q -2.24,0 -2.24,2.24 v 11.2 q 0,2.24 2.24,2.24 h 6.72 q 2.24,0 2.24,-2.24 z"
         style="font-size:56px"
         id="path33" />
      <path
         d="m 337.00328,108.80323 q 4.536,0 7,3.36 2.576,-1.736 5.544,-2.52 3.024,-0.84 5.376,-0.84 h 0.56 q 3.808,0 6.104,2.296 2.296,2.296 2.296,6.104 v 21.84 h -9.8 v -20.16 q 0,-0.84 -0.56,-1.4 -0.56,-0.56 -1.4,-0.56 h -0.28 q -2.52,0 -6.44,1.12 v 21 h -9.8 v -20.16 q 0,-0.84 -0.56,-1.4 -0.56,-0.56 -1.4,-0.56 h -0.28 q -2.52,0 -6.44,1.12 v 21 h -9.8 v -29.68 h 8.68 l 0.56,2.8 q 2.632,-1.736 5.376,-2.52 2.8,-0.84 4.704,-0.84 z"
         style="font-size:56px"
         id="path35" />
      <path
         d="m 380.40327,115.80323 q -2.24,0 -2.24,2.24 v 3.08 h 9.52 v -3.08 q 0,-2.24 -2.24,-2.24 z m 15.96,22.68 q -10.808,1.12 -19.6,1.12 -3.808,0 -6.104,-2.296 -2.296,-2.296 -2.296,-6.104 v -13.44 q 0,-4.2 2.352,-6.552 2.408,-2.408 6.608,-2.408 h 11.2 q 4.2,0 6.552,2.408 2.408,2.352 2.408,6.552 v 10.36 h -19.32 v 2.24 q 0,0.84 0.56,1.4 0.56,0.56 1.4,0.56 5.544,0 16.24,-0.84 z"
         style="font-size:56px"
         id="path37" />
    </g>
  </g>
</svg>
